<mxfile host="drawio-plugin" modified="2024-02-10T18:35:33.506Z" agent="5.0 (Windows NT 10.0; Win64; x64) AppleWebKit/537.36 (KHTML, like Gecko) Chrome/111.0.0.0 Safari/537.36" version="20.5.3" etag="3v0qzQkxEy8vrmPgOlCb" type="embed"><diagram id="qvPOEk2JA0UDZQkluymo" name="Page-1"><mxGraphModel dx="1834" dy="2685" grid="1" gridSize="10" guides="1" tooltips="1" connect="1" arrows="1" fold="1" page="1" pageScale="1" pageWidth="827" pageHeight="1169" background="none" math="0" shadow="0"><root><mxCell id="0"/><mxCell id="1" parent="0"/><mxCell id="63" value="&lt;p style=&quot;margin:0px;margin-top:4px;text-align:center;&quot;&gt;&lt;b&gt;bookings&lt;/b&gt;&lt;/p&gt;&lt;hr size=&quot;1&quot;/&gt;&lt;p style=&quot;margin:0 0 0 4px;line-height:1.6;&quot;&gt; eventID: integer&lt;br/&gt; userID: integer&lt;br/&gt; movieID: integer&lt;br/&gt; hallID: integer&lt;br/&gt; selected_seats: text&lt;/p&gt;&lt;hr size=&quot;1&quot;/&gt;&lt;p style=&quot;margin:0 0 0 4px;line-height:1.6;&quot;&gt; bookingID: integer&lt;/p&gt;" style="verticalAlign=top;align=left;overflow=fill;fontSize=14;fontFamily=Helvetica;html=1;rounded=0;shadow=0;comic=0;labelBackgroundColor=none;strokeWidth=1;" vertex="1" parent="1"><mxGeometry x="43" y="176" width="163" height="184" as="geometry"/></mxCell><mxCell id="64" value="&lt;p style=&quot;margin:0px;margin-top:4px;text-align:center;&quot;&gt;&lt;b&gt;cinema&lt;/b&gt;&lt;/p&gt;&lt;hr size=&quot;1&quot;/&gt;&lt;p style=&quot;margin:0 0 0 4px;line-height:1.6;&quot;&gt; name: text&lt;br/&gt; total_seats: integer&lt;br/&gt; cinema_layout: integer&lt;br/&gt; booked_seats: text&lt;/p&gt;&lt;hr size=&quot;1&quot;/&gt;&lt;p style=&quot;margin:0 0 0 4px;line-height:1.6;&quot;&gt; hallID: integer&lt;/p&gt;" style="verticalAlign=top;align=left;overflow=fill;fontSize=14;fontFamily=Helvetica;html=1;rounded=0;shadow=0;comic=0;labelBackgroundColor=none;strokeWidth=1;" vertex="1" parent="1"><mxGeometry x="95" y="708" width="178" height="160" as="geometry"/></mxCell><mxCell id="65" value="&lt;p style=&quot;margin:0px;margin-top:4px;text-align:center;&quot;&gt;&lt;b&gt;events&lt;/b&gt;&lt;/p&gt;&lt;hr size=&quot;1&quot;/&gt;&lt;p style=&quot;margin:0 0 0 4px;line-height:1.6;&quot;&gt; date: text&lt;br/&gt; hallID: integer&lt;br/&gt; movieID: integer&lt;br/&gt; booked_seats: text&lt;/p&gt;&lt;hr size=&quot;1&quot;/&gt;&lt;p style=&quot;margin:0 0 0 4px;line-height:1.6;&quot;&gt; eventID: integer&lt;/p&gt;" style="verticalAlign=top;align=left;overflow=fill;fontSize=14;fontFamily=Helvetica;html=1;rounded=0;shadow=0;comic=0;labelBackgroundColor=none;strokeWidth=1;" vertex="1" parent="1"><mxGeometry x="126" y="448" width="156" height="160" as="geometry"/></mxCell><mxCell id="66" value="&lt;p style=&quot;margin:0px;margin-top:4px;text-align:center;&quot;&gt;&lt;b&gt;movie&lt;/b&gt;&lt;/p&gt;&lt;hr size=&quot;1&quot;/&gt;&lt;p style=&quot;margin:0 0 0 4px;line-height:1.6;&quot;&gt; name: text&lt;br/&gt; runtime: integer&lt;br/&gt; description: text&lt;br/&gt; hallID: integer&lt;/p&gt;&lt;hr size=&quot;1&quot;/&gt;&lt;p style=&quot;margin:0 0 0 4px;line-height:1.6;&quot;&gt; movieID: integer&lt;/p&gt;" style="verticalAlign=top;align=left;overflow=fill;fontSize=14;fontFamily=Helvetica;html=1;rounded=0;shadow=0;comic=0;labelBackgroundColor=none;strokeWidth=1;" vertex="1" parent="1"><mxGeometry x="135" y="-92" width="139" height="160" as="geometry"/></mxCell><mxCell id="67" value="" style="html=1;rounded=1;edgeStyle=orthogonalEdgeStyle;dashed=0;startArrow=none;endArrow=block;endSize=12;strokeColor=#595959;exitX=0.375;exitY=1.000;exitDx=0;exitDy=0;entryX=0.500;entryY=0.000;entryDx=0;entryDy=0;" edge="1" parent="1" source="63" target="64"><mxGeometry width="50" height="50" relative="1" as="geometry"><Array as="points"><mxPoint x="104" y="508"/><mxPoint x="104" y="508"/><mxPoint x="104" y="628"/><mxPoint x="164" y="628"/><mxPoint x="164" y="688"/><mxPoint x="184" y="688"/></Array></mxGeometry></mxCell><mxCell id="68" value="hallID" style="edgeLabel;resizable=0;html=1;align=left;verticalAlign=top;strokeColor=default;" vertex="1" connectable="0" parent="67"><mxGeometry x="116" y="608" as="geometry"/></mxCell><mxCell id="69" value="" style="html=1;rounded=1;edgeStyle=orthogonalEdgeStyle;dashed=0;startArrow=none;endArrow=block;endSize=12;strokeColor=#595959;exitX=0.625;exitY=1.000;exitDx=0;exitDy=0;entryX=0.125;entryY=0.000;entryDx=0;entryDy=0;" edge="1" parent="1" source="63" target="65"><mxGeometry width="50" height="50" relative="1" as="geometry"><Array as="points"><mxPoint x="144" y="428"/><mxPoint x="146" y="428"/></Array></mxGeometry></mxCell><mxCell id="70" value="eventID" style="edgeLabel;resizable=0;html=1;align=left;verticalAlign=top;strokeColor=default;" vertex="1" connectable="0" parent="69"><mxGeometry x="101" y="428" as="geometry"/></mxCell><mxCell id="71" value="" style="html=1;rounded=1;edgeStyle=orthogonalEdgeStyle;dashed=0;startArrow=none;endArrow=block;endSize=12;strokeColor=#595959;exitX=0.500;exitY=0.000;exitDx=0;exitDy=0;entryX=0.167;entryY=1.000;entryDx=0;entryDy=0;" edge="1" parent="1" source="63" target="66"><mxGeometry width="50" height="50" relative="1" as="geometry"><Array as="points"><mxPoint x="124" y="148"/><mxPoint x="164" y="148"/><mxPoint x="164" y="88"/><mxPoint x="158" y="88"/></Array></mxGeometry></mxCell><mxCell id="72" value="movieID" style="edgeLabel;resizable=0;html=1;align=left;verticalAlign=top;strokeColor=default;" vertex="1" connectable="0" parent="71"><mxGeometry x="115" y="108" as="geometry"/></mxCell><mxCell id="73" value="" style="html=1;rounded=1;edgeStyle=orthogonalEdgeStyle;dashed=0;startArrow=none;endArrow=block;endSize=12;strokeColor=#595959;exitX=0.167;exitY=0.000;exitDx=0;exitDy=0;entryX=0.125;entryY=1.000;entryDx=0;entryDy=0;" edge="1" parent="1" source="64" target="63"><mxGeometry width="50" height="50" relative="1" as="geometry"><Array as="points"><mxPoint x="125" y="688"/><mxPoint x="64" y="688"/><mxPoint x="64" y="508"/><mxPoint x="63" y="508"/></Array></mxGeometry></mxCell><mxCell id="74" value="hallID:" style="edgeLabel;resizable=0;html=1;align=left;verticalAlign=top;strokeColor=default;" vertex="1" connectable="0" parent="73"><mxGeometry x="25" y="618" as="geometry"/></mxCell><mxCell id="75" value="" style="html=1;rounded=1;edgeStyle=orthogonalEdgeStyle;dashed=0;startArrow=none;endArrow=block;endSize=12;strokeColor=#595959;exitX=0.833;exitY=0.000;exitDx=0;exitDy=0;entryX=0.750;entryY=1.000;entryDx=0;entryDy=0;" edge="1" parent="1" source="64" target="65"><mxGeometry width="50" height="50" relative="1" as="geometry"><Array as="points"><mxPoint x="243" y="648"/><mxPoint x="243" y="648"/></Array></mxGeometry></mxCell><mxCell id="76" value="hallID" style="edgeLabel;resizable=0;html=1;align=left;verticalAlign=top;strokeColor=default;" vertex="1" connectable="0" parent="75"><mxGeometry x="207" y="638" as="geometry"/></mxCell><mxCell id="77" value="" style="html=1;rounded=1;edgeStyle=orthogonalEdgeStyle;dashed=0;startArrow=none;endArrow=block;endSize=12;strokeColor=#595959;exitX=0.375;exitY=0.000;exitDx=0;exitDy=0;entryX=0.875;entryY=1.000;entryDx=0;entryDy=0;" edge="1" parent="1" source="65" target="63"><mxGeometry width="50" height="50" relative="1" as="geometry"><Array as="points"><mxPoint x="185" y="428"/><mxPoint x="185" y="428"/></Array></mxGeometry></mxCell><mxCell id="78" value="eventID" style="edgeLabel;resizable=0;html=1;align=left;verticalAlign=top;strokeColor=default;" vertex="1" connectable="0" parent="77"><mxGeometry x="140" y="384" as="geometry"/></mxCell><mxCell id="79" value="" style="html=1;rounded=1;edgeStyle=orthogonalEdgeStyle;dashed=0;startArrow=none;endArrow=block;endSize=12;strokeColor=#595959;exitX=0.250;exitY=1.000;exitDx=0;exitDy=0;entryX=0.500;entryY=0.000;entryDx=0;entryDy=0;" edge="1" parent="1" source="65" target="64"><mxGeometry width="50" height="50" relative="1" as="geometry"><Array as="points"><mxPoint x="165" y="628"/><mxPoint x="164" y="628"/><mxPoint x="164" y="688"/><mxPoint x="184" y="688"/></Array></mxGeometry></mxCell><mxCell id="80" value="hallID" style="edgeLabel;resizable=0;html=1;align=left;verticalAlign=top;strokeColor=default;" vertex="1" connectable="0" parent="79"><mxGeometry x="128" y="648" as="geometry"/></mxCell><mxCell id="81" value="" style="html=1;rounded=1;edgeStyle=orthogonalEdgeStyle;dashed=0;startArrow=none;endArrow=block;endSize=12;strokeColor=#595959;exitX=0.625;exitY=0.000;exitDx=0;exitDy=0;entryX=0.167;entryY=1.000;entryDx=0;entryDy=0;" edge="1" parent="1" source="65" target="66"><mxGeometry width="50" height="50" relative="1" as="geometry"><Array as="points"><mxPoint x="224" y="428"/><mxPoint x="224" y="428"/><mxPoint x="224" y="148"/><mxPoint x="164" y="148"/><mxPoint x="164" y="88"/><mxPoint x="158" y="88"/></Array></mxGeometry></mxCell><mxCell id="82" value="movieID" style="edgeLabel;resizable=0;html=1;align=left;verticalAlign=top;strokeColor=default;" vertex="1" connectable="0" parent="81"><mxGeometry x="140" y="128" as="geometry"/></mxCell><mxCell id="83" value="" style="html=1;rounded=1;edgeStyle=orthogonalEdgeStyle;dashed=0;startArrow=none;endArrow=block;endSize=12;strokeColor=#595959;exitX=0.833;exitY=1.000;exitDx=0;exitDy=0;entryX=0.500;entryY=0.000;entryDx=0;entryDy=0;" edge="1" parent="1" source="66" target="64"><mxGeometry width="50" height="50" relative="1" as="geometry"><Array as="points"><mxPoint x="250" y="88"/><mxPoint x="304" y="88"/><mxPoint x="304" y="628"/><mxPoint x="164" y="628"/><mxPoint x="164" y="688"/><mxPoint x="184" y="688"/></Array></mxGeometry></mxCell><mxCell id="84" value="hallID" style="edgeLabel;resizable=0;html=1;align=left;verticalAlign=top;strokeColor=default;" vertex="1" connectable="0" parent="83"><mxGeometry x="268" y="618" as="geometry"/></mxCell><mxCell id="85" value="" style="html=1;rounded=1;edgeStyle=orthogonalEdgeStyle;dashed=0;startArrow=none;endArrow=block;endSize=12;strokeColor=#595959;exitX=0.500;exitY=1.000;exitDx=0;exitDy=0;entryX=0.875;entryY=0.000;entryDx=0;entryDy=0;" edge="1" parent="1" source="66" target="65"><mxGeometry width="50" height="50" relative="1" as="geometry"><Array as="points"><mxPoint x="204" y="128"/><mxPoint x="264" y="128"/><mxPoint x="264" y="428"/><mxPoint x="263" y="428"/></Array></mxGeometry></mxCell><mxCell id="86" value="movieID" style="edgeLabel;resizable=0;html=1;align=left;verticalAlign=top;strokeColor=default;" vertex="1" connectable="0" parent="85"><mxGeometry x="215" y="268" as="geometry"/></mxCell><mxCell id="100" value="Cinema" style="whiteSpace=wrap;html=1;align=center;" vertex="1" parent="1"><mxGeometry x="80" y="960" width="100" height="40" as="geometry"/></mxCell><mxCell id="101" value="Movie" style="whiteSpace=wrap;html=1;align=center;" vertex="1" parent="1"><mxGeometry x="240" y="960" width="100" height="40" as="geometry"/></mxCell><mxCell id="102" value="Event" style="whiteSpace=wrap;html=1;align=center;" vertex="1" parent="1"><mxGeometry x="400" y="960" width="100" height="40" as="geometry"/></mxCell><mxCell id="103" value="Booking" style="whiteSpace=wrap;html=1;align=center;" vertex="1" parent="1"><mxGeometry x="560" y="960" width="100" height="40" as="geometry"/></mxCell><mxCell id="104" value="" style="endArrow=none;html=1;rounded=0;" edge="1" parent="1" source="100" target="101"><mxGeometry relative="1" as="geometry"><mxPoint x="90" y="1120" as="sourcePoint"/><mxPoint x="250" y="1120" as="targetPoint"/></mxGeometry></mxCell><mxCell id="105" value="1" style="resizable=0;html=1;align=left;verticalAlign=bottom;" connectable="0" vertex="1" parent="104"><mxGeometry x="-1" relative="1" as="geometry"/></mxCell><mxCell id="106" value="N" style="resizable=0;html=1;align=right;verticalAlign=bottom;" connectable="0" vertex="1" parent="104"><mxGeometry x="1" relative="1" as="geometry"/></mxCell><mxCell id="107" value="" style="endArrow=none;html=1;rounded=0;" edge="1" parent="1" source="101" target="102"><mxGeometry relative="1" as="geometry"><mxPoint x="350" y="1040" as="sourcePoint"/><mxPoint x="410" y="1040" as="targetPoint"/></mxGeometry></mxCell><mxCell id="108" value="1" style="resizable=0;html=1;align=left;verticalAlign=bottom;" connectable="0" vertex="1" parent="107"><mxGeometry x="-1" relative="1" as="geometry"/></mxCell><mxCell id="109" value="N" style="resizable=0;html=1;align=right;verticalAlign=bottom;" connectable="0" vertex="1" parent="107"><mxGeometry x="1" relative="1" as="geometry"/></mxCell><mxCell id="110" value="" style="endArrow=none;html=1;rounded=0;" edge="1" parent="1" source="102" target="103"><mxGeometry relative="1" as="geometry"><mxPoint x="540" y="1040" as="sourcePoint"/><mxPoint x="600" y="1040" as="targetPoint"/></mxGeometry></mxCell><mxCell id="111" value="1" style="resizable=0;html=1;align=left;verticalAlign=bottom;" connectable="0" vertex="1" parent="110"><mxGeometry x="-1" relative="1" as="geometry"/></mxCell><mxCell id="112" value="N" style="resizable=0;html=1;align=right;verticalAlign=bottom;" connectable="0" vertex="1" parent="110"><mxGeometry x="1" relative="1" as="geometry"/></mxCell></root></mxGraphModel></diagram></mxfile>